<svg xmlns="http://www.w3.org/2000/svg" fill="currentColor" class="w-6 h-6" viewBox="0 0 24 24">
  <path d="M22.46 6c-.77.35-1.6.58-2.46.69a4.28 4.28 0 0 0 1.88-2.37c-.83.5-1.76.87-2.74 1.06A4.25 4.25 0 0 0 16.15 4c-2.36 0-4.28 1.92-4.28 4.29 0 .34.04.67.11.99-3.56-.18-6.72-1.88-8.83-4.47a4.28 4.28 0 0 0-.58 2.15c0 1.48.75 2.79 1.89 3.56a4.21 4.21 0 0 1-1.94-.54v.05c0 2.07 1.47 3.79 3.42 4.18-.36.1-.75.15-1.14.15-.28 0-.55-.03-.82-.08.56 1.75 2.18 3.03 4.1 3.07a8.55 8.55 0 0 1-5.3 1.83c-.34 0-.68-.02-1.01-.06a12.06 12.06 0 0 0 6.53 1.91c7.83 0 12.1-6.49 12.1-12.11 0-.18 0-.35-.01-.53A8.62 8.62 0 0 0 24 4.56a8.48 8.48 0 0 1-2.44.67 4.26 4.26 0 0 0 1.86-2.35z"/>
</svg>
